# xmcd
#
# Track frame offsets:
#	150
#	16950
#	32850
#	46125
#	60150
#	77550
#	93600
#	106425
#	120600
#	134475
#	147675
#	164475
#	180375
#	193650
#	207675
#	225075
#	241125
#	253950
#	268125
#	282000
#
# Disc length: 3940 seconds
#
# Revision: 3
# Processed by: cddbd v1.5.2PL0 Copyright (c) Steve Scherf et al.
# Submitted via: audiograbber 1.83.01
#
DISCID=1e0f6214
DTITLE=Various Artist - CHT9902
DYEAR=1900
DGENRE=Karaoke
TTITLE0=Shania Twain - That Don't Impress Me Much
TTITLE1=Dixie Chicks - You Were Mine
TTITLE2=Trisha Yearwood - Powerful Thing
TTITLE3=Kenny Chesney - How Forever Feels
TTITLE4=Mark Chesnutt - I Don't Want To Miss A Thing
TTITLE5=Lari White - Take Me
TTITLE6=Alabama - Keepin' Up
TTITLE7=Blackhawk - There You Have It
TTITLE8=Randy Travis - Spirit Of A Boy Wisdom Of A Man
TTITLE9=Leann Rimes - These Arms Of Mine
TTITLE10=Shania Twain - That Don't Impress Me Much (Vocal)
TTITLE11=Dixie Chicks - You Were Mine (Vocal)
TTITLE12=Trisha Yearwood - Powerful Thing (Vocal)
TTITLE13=Kenny Chesney - How Forever Feels (Vocal)
TTITLE14=Mark Chesnutt - I Don't Want To Miss A Thing (Vocal)
TTITLE15=Lari White - Take Me (Vocal)
TTITLE16=Alabama - Keepin' Up (Vocal)
TTITLE17=Blackhawk - There You Have It (Vocal)
TTITLE18=Randy Travis - Spirit Of A Boy Wisdom Of A Man (Vocal)
TTITLE19=Leann Rimes - These Arms Of Mine (Vocal)
EXTD=
EXTT0=
EXTT1=
EXTT2=
EXTT3=
EXTT4=
EXTT5=
EXTT6=
EXTT7=
EXTT8=
EXTT9=
EXTT10=
EXTT11=
EXTT12=
EXTT13=
EXTT14=
EXTT15=
EXTT16=
EXTT17=
EXTT18=
EXTT19=
PLAYORDER=
